<svg width="16" height="16" viewBox="0 0 16 16" fill="none" xmlns="http://www.w3.org/2000/svg">
<path d="M15 5.51438C14.9749 6.38479 14.617 7.21244 14 7.82688L11.8281 10C11.5118 10.3181 11.1355 10.5702 10.7211 10.7419C10.3067 10.9135 9.86231 11.0012 9.41374 11H9.41062C8.95439 10.9997 8.50285 10.9079 8.08268 10.7302C7.66251 10.5524 7.28222 10.2922 6.96428 9.96504C6.64635 9.63784 6.39721 9.25024 6.23158 8.82514C6.06596 8.40004 5.98721 7.94605 5.99999 7.49C6.00372 7.35739 6.05998 7.2317 6.15638 7.14057C6.25279 7.04944 6.38144 7.00034 6.51405 7.00407C6.64666 7.0078 6.77236 7.06405 6.86349 7.16046C6.95462 7.25686 7.00372 7.38552 6.99999 7.51813C6.99089 7.84058 7.04651 8.16159 7.16357 8.46218C7.28063 8.76278 7.45676 9.03685 7.68155 9.26822C7.90633 9.49959 8.17521 9.68356 8.4723 9.80924C8.76939 9.93493 9.08866 9.9998 9.41124 10C9.72834 10.0008 10.0425 9.93876 10.3354 9.81743C10.6284 9.6961 10.8944 9.5179 11.1181 9.29313L13.29 7.12125C13.7381 6.66751 13.9885 6.05491 13.9865 5.41719C13.9845 4.77948 13.7303 4.16846 13.2793 3.71753C12.8284 3.2666 12.2174 3.01238 11.5797 3.01039C10.942 3.00839 10.3294 3.25878 9.87562 3.70688L9.18812 4.39438C9.09358 4.48419 8.96771 4.53352 8.83733 4.53185C8.70695 4.53018 8.58238 4.47764 8.49018 4.38544C8.39798 4.29324 8.34544 4.16867 8.34377 4.03829C8.3421 3.90791 8.39143 3.78203 8.48124 3.6875L9.16874 3C9.48593 2.68271 9.86251 2.43101 10.277 2.25929C10.6915 2.08756 11.1357 1.99918 11.5844 1.99918C12.033 1.99918 12.4773 2.08756 12.8917 2.25929C13.3062 2.43101 13.6828 2.68271 14 3C14.3285 3.32935 14.5866 3.72211 14.7585 4.15437C14.9304 4.58663 15.0126 5.04936 15 5.51438ZM6.81249 11.6038L6.12499 12.2913C5.90076 12.517 5.63389 12.6959 5.3399 12.8176C5.04591 12.9392 4.73066 13.0012 4.41249 13C3.93518 12.9996 3.46869 12.8578 3.07197 12.5924C2.67524 12.327 2.36609 11.9499 2.18356 11.5089C2.00104 11.0679 1.95333 10.5826 2.04647 10.1145C2.13961 9.64636 2.36942 9.21633 2.70687 8.87875L4.87499 6.70688C5.21648 6.36358 5.65331 6.1309 6.12874 6.03906C6.60416 5.94721 7.09622 6.00044 7.54101 6.19183C7.9858 6.38323 8.36276 6.70394 8.62294 7.11232C8.88311 7.5207 9.01449 7.99788 8.99999 8.48188C8.99626 8.61449 9.04536 8.74314 9.13649 8.83955C9.22762 8.93596 9.35332 8.99221 9.48593 8.99594C9.61854 8.99967 9.74719 8.95057 9.8436 8.85944C9.94001 8.76831 9.99626 8.64261 9.99999 8.51C10.012 8.04571 9.92955 7.58382 9.75765 7.15235C9.58575 6.72088 9.32798 6.32884 8.99999 6C8.35948 5.35977 7.49093 5.00011 6.5853 5.00011C5.67968 5.00011 4.81113 5.35977 4.17062 6L1.99999 8.17188C1.52263 8.64904 1.19744 9.257 1.0655 9.91892C0.933556 10.5808 1.00079 11.267 1.25871 11.8908C1.51663 12.5145 1.95365 13.0477 2.51455 13.4232C3.07544 13.7986 3.73504 13.9993 4.40999 14C4.85866 14.0013 5.30313 13.9136 5.71767 13.7419C6.1322 13.5703 6.50857 13.3181 6.82499 13L7.51249 12.3125C7.59341 12.2172 7.63568 12.095 7.63097 11.9701C7.62627 11.8452 7.57493 11.7265 7.48707 11.6376C7.39921 11.5486 7.28122 11.4958 7.15635 11.4895C7.03148 11.4833 6.9088 11.524 6.81249 11.6038Z" fill="#1C1C1C" fill-opacity="0.2"/>
</svg>
