<svg width="26" height="28" viewBox="0 0 26 28" fill="none" xmlns="http://www.w3.org/2000/svg">
<path d="M22.7348 5.15376C22.7107 4.72712 22.5425 4.32472 22.2618 4.02248C21.9812 3.72024 21.6075 3.53906 21.2113 3.51314C19.9337 3.4311 16.6684 3.55689 13.9588 6.47392L13.4763 7.00001H7.55219C7.33798 6.99871 7.12566 7.0433 6.92759 7.13117C6.72952 7.21905 6.54965 7.34846 6.39844 7.51189L2.91485 11.2656C2.70121 11.4956 2.5513 11.785 2.48194 12.1016C2.41258 12.4182 2.42651 12.7493 2.52218 13.0578C2.61785 13.3663 2.79146 13.64 3.02354 13.8482C3.25561 14.0563 3.53697 14.1907 3.83602 14.2363L7.74313 14.8236L12.2332 19.6591L12.7786 23.8689C12.8205 24.191 12.9453 24.494 13.1388 24.7437C13.3322 24.9935 13.5867 25.1799 13.8734 25.282C14.0404 25.3421 14.2153 25.3728 14.3914 25.3728C14.6046 25.3733 14.8158 25.3282 15.0127 25.2404C15.2097 25.1525 15.3886 25.0236 15.5391 24.8609L19.0247 21.1094C19.1764 20.9466 19.2966 20.7528 19.3782 20.5395C19.4598 20.3262 19.5012 20.0976 19.5 19.8669V13.487L19.9845 12.9653C22.6942 10.0472 22.8109 6.53079 22.7348 5.15376ZM7.55219 8.75001H11.8513L7.83657 13.0725L4.06251 12.5059L7.55219 8.75001ZM15.1095 7.71642C15.8902 6.87044 16.8296 6.21361 17.8648 5.7898C18.9001 5.36598 20.0074 5.18494 21.1128 5.25876C21.184 6.44983 21.0177 7.64352 20.6249 8.7596C20.2321 9.87568 19.6221 10.8883 18.8358 11.7294L13 18.0119L9.27469 14L15.1095 7.71642ZM17.875 19.8669L14.3884 23.625L13.8613 19.5595L17.875 15.237V19.8669ZM10.3431 20.9059C9.8861 21.9844 8.35758 24.5 4.06251 24.5C3.84702 24.5 3.64036 24.4078 3.48798 24.2437C3.33561 24.0796 3.25001 23.8571 3.25001 23.625C3.25001 18.9995 5.58594 17.3534 6.58735 16.8602C6.68445 16.8125 6.78931 16.7859 6.89596 16.7818C7.00261 16.7778 7.10896 16.7964 7.20893 16.8366C7.3089 16.8768 7.40053 16.9379 7.47859 17.0162C7.55666 17.0946 7.61963 17.1887 7.66391 17.2933C7.70819 17.3979 7.73292 17.5108 7.73667 17.6256C7.74042 17.7405 7.72313 17.855 7.68578 17.9627C7.64844 18.0703 7.59177 18.169 7.51901 18.2531C7.44625 18.3372 7.35882 18.405 7.26173 18.4527C6.60868 18.7731 5.16751 19.8045 4.9136 22.7084C7.61008 22.435 8.56985 20.883 8.8654 20.1797C8.90968 20.0751 8.97265 19.981 9.05072 19.9026C9.12878 19.8243 9.22042 19.7632 9.32038 19.723C9.42035 19.6828 9.5267 19.6642 9.63335 19.6682C9.74 19.6723 9.84486 19.6989 9.94196 19.7466C10.0391 19.7943 10.1265 19.8621 10.1992 19.9461C10.272 20.0302 10.3287 20.1289 10.366 20.2366C10.4034 20.3442 10.4207 20.4587 10.4169 20.5736C10.4131 20.6884 10.3884 20.8014 10.3441 20.9059H10.3431Z" fill="#343330"/>
</svg>
